inDegrees=no
num_controls=7
num_derivatives=13
num_iterations=38
num_multipliers=7
num_parameters=0
num_slacks=7
num_states=26
objective=0.428150
objective_accelerations=0.056202
objective_balance=0.001113
objective_effort=0.014878
objective_height=0.349988
objective_ligament=0.005969
solver_duration=563.730635
status=Solve_Succeeded
success=true
DataType=double
version=3
OpenSimVersion=4.5
endheader
time	/jointset/ground_pelvis/pelvis_tilt/value	/jointset/ground_pelvis/pelvis_tx/value	/jointset/ground_pelvis/pelvis_ty/value	/jointset/hip_l/hip_flexion_l/value	/jointset/hip_l/hip_adduction_l/value	/jointset/hip_l/hip_rotation_l/value	/jointset/back/lumbar_extension/value	/jointset/patellofemoral_l/patellar_flexion_l/value	/jointset/knee_l/knee_flexion_l/value	/jointset/knee_l/knee_adduction_l/value	/jointset/knee_l/knee_rotation_l/value	/jointset/ankle_l/ankle_angle_l/value	/jointset/subtalar_l/subtalar_angle_l/value	/jointset/ground_pelvis/pelvis_tilt/speed	/jointset/ground_pelvis/pelvis_tx/speed	/jointset/ground_pelvis/pelvis_ty/speed	/jointset/hip_l/hip_flexion_l/speed	/jointset/hip_l/hip_adduction_l/speed	/jointset/hip_l/hip_rotation_l/speed	/jointset/back/lumbar_extension/speed	/jointset/patellofemoral_l/patellar_flexion_l/speed	/jointset/knee_l/knee_flexion_l/speed	/jointset/knee_l/knee_adduction_l/speed	/jointset/knee_l/knee_rotation_l/speed	/jointset/ankle_l/ankle_angle_l/speed	/jointset/subtalar_l/subtalar_angle_l/speed	/forceset/tau_hip_flexion_l	/forceset/tau_hip_adduction_l	/forceset/tau_hip_rotation_l	/forceset/tau_knee_flexion_l	/forceset/tau_ankle_angle_l	/forceset/tau_subtalar_angle_l	/forceset/tau_lumbar_extension	lambda_cid13_p0	lambda_cid13_p1	lambda_cid13_p2	lambda_cid13_p3	lambda_cid13_p4	lambda_cid13_p5	lambda_cid14_p0	/jointset/ground_pelvis/pelvis_tilt/accel	/jointset/ground_pelvis/pelvis_tx/accel	/jointset/ground_pelvis/pelvis_ty/accel	/jointset/hip_l/hip_flexion_l/accel	/jointset/hip_l/hip_adduction_l/accel	/jointset/hip_l/hip_rotation_l/accel	/jointset/back/lumbar_extension/accel	/jointset/patellofemoral_l/patellar_flexion_l/accel	/jointset/knee_l/knee_flexion_l/accel	/jointset/knee_l/knee_adduction_l/accel	/jointset/knee_l/knee_rotation_l/accel	/jointset/ankle_l/ankle_angle_l/accel	/jointset/subtalar_l/subtalar_angle_l/accel	gamma_cid13_p0	gamma_cid13_p1	gamma_cid13_p2	gamma_cid13_p3	gamma_cid13_p4	gamma_cid13_p5	gamma_cid14_p0
0.5	-0.2021229206864455	0.0387392719402667	0.7781250555964607	0.9523875233153649	-0.3648854850807096	-0.007037252354343788	-0.3981931926879463	0.9420651947597972	0.9420651947598492	-0.0379862387428186	-0.1743811280045174	0.3187863928789491	0.1637549595020523	-0.7031775274188251	-0.1642746301149265	-0.4997238931313306	2.291435013385315	0.03511640057680492	0.5310893241566471	-0.3144298517061505	1.957331828455643	1.957331828455691	0.301064479032662	0.002136806133043147	0.5322845479318074	0.2716800302347379	-0.09872189657793086	0.08073751473304479	-0.001018637744298927	-0.1962643572357465	0.007171001652704879	-0.01998729568877222	0.1131217468306767	-25.27681947413803	17.88494719583459	-8.590758170614567	1.883666978846351	-440.1588755499482	-23.07488167428194	-5.465150627817986	0.2891466737581482	0.324834733908571	-0.4580711829111228	-1.087005806230087	0.1071155169338209	-0.7318854598234418	1.342178913777685	-1.548714105971771	-1.548714105971775	-0.2110893591896796	0.01319725149665248	-0.9104119319148246	0.08111102863288952	-4.573365886788522e-07	-6.968354069361247e-07	6.057523440349524e-06	2.674980164634527e-07	-1.257003423084065e-06	-1.614681616988832e-06	-7.832867471973747e-07
0.51	-0.2091382083049218	0.03711311215074643	0.7731061864984848	0.9752425321193268	-0.3645316473886109	-0.001757585946367196	-0.4012710989859956	0.9615573581916179	0.9615573581917001	-0.03499556997434335	-0.1743593495963072	0.3240620741414713	0.16647121201672	-0.6997783128201356	-0.1609312528921448	-0.5039328213533962	2.279242120501661	0.03564559342442938	0.5248034952231239	-0.3011125324053421	1.940818274261725	1.940818274261772	0.2970498272785744	0.002201333862107515	0.5227797170312415	0.2715177347143818	-0.1031932672862357	0.08197624118848883	-0.001627595632085353	-0.1986622065314726	0.005877422131246768	-0.01933337277769519	0.1165880597972702	-25.87933001403476	17.89923344299571	-8.813249549450353	1.960662608723567	-443.3630097681821	-23.03207596821289	-4.814018942173201	0.3805332130863042	0.3430589490764085	-0.3849849845585263	-1.334177934079885	0.02408776126716044	-0.5837522909704479	1.332339762815408	-1.744909298978417	-1.744909298978694	-0.4995643824929433	0.001576617152871732	-0.9813478072316115	-0.07345472401082462	-4.378612169576664e-07	-3.129623656819937e-07	6.042274455217017e-06	3.140059787649196e-07	-1.207933634940895e-06	-1.235392108643282e-06	-7.581616414178184e-07
0.52	-0.2161164589053708	0.03552118007997634	0.768048691849748	0.9979658626135219	-0.3641728644495173	0.003457858036101139	-0.4042146658261195	0.9808759394369141	0.9808759394370482	-0.03204562998317387	-0.1743372266941082	0.3292405412673688	0.1691841305998557	-0.695770123814981	-0.1574290863648888	-0.5074490032835356	2.265099351432126	0.03610544997567085	0.5182448390554542	-0.2875619601212075	1.922615391152747	1.922615391152793	0.2929187235655025	0.002205704932833696	0.5128417206065143	0.2710132439283887	-0.1076646379945954	0.0832149676439124	-0.002236553519723735	-0.2010600558271967	0.00458384260979334	-0.01867944986664649	0.1200543727638133	-26.47671766699835	17.90274985293998	-9.022743722008792	1.997049868260959	-446.4896833697013	-23.10153946473343	-4.210677679501533	0.4109415550509694	0.3565925948035034	-0.3195219245258168	-1.476981043406371	0.09324825765718799	-0.7864509066528028	1.388829510442826	-1.886579888983612	-1.886579888983594	-0.2343797509865684	0.001165919828907643	-0.9970450367470008	0.01267197550547526	-4.158547818893782e-07	6.331938672738161e-08	5.995136416563708e-06	3.574784607706759e-07	-1.152144748219475e-06	-8.434093858682375e-07	-7.309710500189889e-07
0.53	-0.2230518382401558	0.03396500726824207	0.7629595188754416	1.020538472458891	-0.3638095516029986	0.008606886505810575	-0.4070215743729876	1.000004348047387	1.000004348047316	-0.02913752618423393	-0.1743149186727539	0.3343176508152039	0.1718906478478094	-0.6912141213279123	-0.1537839340544689	-0.51026425345958	2.249111086777735	0.03655411379896912	0.5114987149732672	-0.2737983858287495	1.902794012689583	1.902794012689563	0.2887044720936872	0.002228559412925637	0.5025162039439182	0.2702407984989549	-0.1119927832354289	0.08417290089870522	-0.002717250321369458	-0.2038659233100575	0.003602544355567919	-0.01817727326412704	0.1233889159473148	-27.0009682682164	17.98085276167794	-9.268677550832402	2.031632536731139	-449.7792055665901	-23.12664516496351	-3.654323577540268	0.4916516115222157	0.3717839009524276	-0.2445504147228452	-1.706524062518273	0.01929083538522738	-0.628693111194072	1.373325902043042	-2.070621224860256	-2.070621224870327	-0.5145104166762399	-0.000113565588175579	-1.059901948844394	-0.1303672956122839	-3.927693497963625e-07	3.876225428235762e-07	5.906768315829698e-06	3.920147850605962e-07	-1.092474171383373e-06	-4.790809863299445e-07	-7.030332529249893e-07
